<svg width="1440" height="900" viewBox="0 0 1440 900" fill="none" xmlns="http://www.w3.org/2000/svg">
<path fill-rule="evenodd" clip-rule="evenodd" d="M338.918 501.174C364.742 507.348 393.562 523.17 396.998 549.072C398.726 562.158 393.562 574.776 389.011 585.918L361.459 653.31C352.032 676.368 341.357 702.486 345.869 728.442C350.784 756.648 374.976 780.768 404.678 787.104C413.53 788.994 423.072 789.48 432.307 789.966C448.896 790.812 466.042 791.694 480.192 800.604C502.406 814.59 506.726 841.734 507.322 856.674C508.032 874.98 504.307 888.804 495.898 898.956C495.61 899.298 495.322 899.658 494.995 900H487.392C488.813 898.524 490.138 897.084 491.347 895.644C498.893 886.536 502.234 873.846 501.562 856.872C501.005 842.958 497.088 817.74 476.986 805.086C464.73 797.363 449.915 796.297 434.182 795.463L431.981 795.348C422.515 794.862 412.723 794.358 403.411 792.378C371.462 785.556 345.466 759.636 340.186 729.306C335.424 701.928 346.867 673.902 356.083 651.366L383.635 583.992C387.936 573.444 392.832 561.492 391.277 549.738C388.205 526.536 361.478 512.136 337.498 506.412C278.112 492.21 215.482 506.358 156.422 522.072C126.835 529.938 100.397 537.552 76.5504 551.25C70.6368 554.634 64.8 558.468 59.1552 562.176C47.9424 569.556 36.3456 577.17 23.2512 581.958C16.224 584.532 8.1408 586.134 0 586.296V580.914C7.3728 580.752 14.7648 579.276 21.1584 576.936C33.6 572.382 44.9088 564.948 55.8528 557.766C61.5744 554.004 67.4688 550.116 73.536 546.642C97.9968 532.62 125.952 524.556 154.848 516.87C214.656 500.958 278.15 486.648 338.918 501.174ZM361.306 475.866C387.994 482.76 406.368 492.03 419.117 505.062C429.427 515.592 451.814 546.282 436.838 603.378C432.499 619.866 426.01 635.994 419.712 651.618C413.242 667.638 406.56 684.216 402.278 701.118C400.109 709.632 398.458 719.442 402.47 727.704C405.12 733.122 410.15 737.856 417.869 742.194C431.827 750.042 448.224 753.624 464.064 757.08L466.923 757.706C483.15 761.271 499.734 765.209 513.715 773.964C535.027 787.302 549.485 811.836 553.363 841.266C555.955 860.904 554.035 880.632 551.002 900H549.062C552.096 880.668 554.035 860.994 551.462 841.482C547.642 812.574 533.491 788.508 512.64 775.458C499.352 767.142 483.499 763.227 467.89 759.777L465.056 759.153C464.584 759.05 464.112 758.947 463.642 758.844C447.648 755.352 431.098 751.734 416.89 743.742C408.826 739.206 403.526 734.202 400.723 728.46C396.461 719.694 398.17 709.506 400.416 700.704C404.736 683.694 411.437 667.062 417.907 650.97C424.186 635.418 430.675 619.326 434.957 602.946C449.722 546.696 427.795 516.6 417.696 506.268C405.216 493.506 387.13 484.398 360.787 477.612C284.544 457.92 197.203 466.164 85.9392 503.532L79.2 505.818C53.6448 514.458 27.2256 523.386 0 523.35V521.55C23.5704 521.597 46.5822 514.795 68.9839 507.342L72.18 506.274C74.308 505.559 76.4304 504.842 78.5472 504.126L85.3056 501.84C196.954 464.346 284.659 456.084 361.306 475.866ZM298.176 537.57C324.691 541.566 340.109 558.126 343.642 572.778C347.03 586.82 341.721 600.799 336.055 614.372L335.314 616.14C335.191 616.434 335.067 616.728 334.944 617.022L334.003 619.272C314.554 665.82 308.736 705.33 316.224 740.034C327.187 790.812 365.798 819.954 399.206 826.326C402.355 826.938 405.638 827.388 408.826 827.82C416.41 828.882 424.243 829.98 431.309 833.148C447.533 840.474 457.709 858.996 456.038 878.202C455.405 885.42 453.254 892.728 449.683 900H447.571C450.95 893.322 453.427 885.942 454.118 878.058C455.731 859.572 446.016 841.77 430.464 834.768C423.686 831.708 415.987 830.646 408.538 829.602C405.331 829.17 402.029 828.702 398.822 828.09C378.067 824.13 358.944 813.186 343.488 796.428C329.146 780.858 318.797 760.968 314.342 740.394C306.778 705.33 312.614 665.496 332.218 618.606L333.158 616.356C339.11 602.208 345.235 587.592 341.779 573.174C338.381 559.116 323.501 543.204 297.869 539.334C283.699 537.21 269.184 539.64 255.149 542.016C250.387 542.808 245.491 543.636 240.672 544.266C220.224 546.966 199.776 551.178 179.885 556.83C139.757 568.224 102.125 585.198 68.0064 607.284C66.2784 608.382 64.5696 609.516 62.8416 610.65C50.9952 618.444 38.7264 626.49 24.576 630C16.5504 631.998 8.3712 632.43 0 632.592V630.792C8.2176 630.63 16.2624 630.198 24.096 628.272C37.92 624.834 50.0352 616.878 61.7472 609.174C63.4752 608.04 65.184 606.906 66.912 605.79C101.203 583.614 139.008 566.568 179.328 555.12C199.315 549.432 219.859 545.184 240.403 542.484C245.184 541.854 250.08 541.044 254.803 540.234C268.992 537.84 283.68 535.374 298.176 537.57ZM275.405 745.794C279.475 752.778 279.706 760.842 279.936 768.654C280.07 773.748 280.224 779.004 281.434 783.9C284.813 797.562 296.006 809.334 316.704 820.98C329.894 828.414 343.891 834.714 358.33 839.754L362.131 841.05C378.106 846.54 396.23 852.768 403.488 867.528C407.77 876.276 407.405 887.4 402.509 897.282C402.048 898.2 401.568 899.1 401.03 900H398.822C399.552 898.848 400.186 897.696 400.762 896.526C405.427 887.112 405.792 876.546 401.741 868.284C395.532 855.623 381.22 849.644 366.473 844.475L364.802 843.893C363.688 843.507 362.572 843.124 361.459 842.742L357.658 841.428C343.123 836.37 329.011 830.016 315.706 822.528C294.547 810.612 283.066 798.462 279.571 784.314C278.304 779.238 278.15 773.874 278.016 768.708C277.786 760.752 277.574 753.246 273.715 746.64C265.92 733.23 246.144 730.35 231.494 734.454C218.842 737.982 207.84 745.542 197.203 752.85C194.746 754.524 192.288 756.216 189.811 757.836C161.856 776.34 128.371 790.83 84.4224 803.412C58.752 810.774 29.4144 817.524 0 815.4V813.582C29.1456 815.724 58.3104 808.992 83.8464 801.684C127.603 789.156 160.915 774.756 188.717 756.378C191.174 754.74 193.613 753.066 196.07 751.392C206.842 743.994 217.978 736.344 230.938 732.726C246.317 728.424 267.11 731.538 275.405 745.794ZM245.414 797.04C248.563 801.522 249.946 806.778 251.29 811.872C251.693 813.42 252.096 814.95 252.538 816.462C258.566 836.73 274.138 852.822 293.184 858.492C297.85 859.878 302.784 860.688 307.546 861.462C311.213 862.056 315.014 862.668 318.701 863.55C329.165 866.052 336.787 870.66 340.723 876.888C345.427 884.34 344.525 892.692 341.779 900H339.763C342.528 892.962 343.565 884.898 339.072 877.806C334.426 870.462 325.171 866.952 318.221 865.296C314.611 864.432 310.848 863.82 307.219 863.226C302.381 862.452 297.389 861.642 292.608 860.22C272.947 854.37 256.877 837.792 250.694 816.948C250.234 815.418 249.83 813.87 249.427 812.304C248.122 807.372 246.778 802.242 243.821 798.03C236.736 787.986 222.067 785.412 210.682 787.338C199.507 789.228 189.254 794.628 179.366 799.866L176.122 801.558C134.304 823.446 71.5008 847.62 0 846.162V844.38C71.0976 845.838 133.574 821.772 175.2 799.992L178.406 798.282C188.448 792.99 198.835 787.5 210.336 785.574C222.355 783.54 237.85 786.312 245.414 797.04ZM208.378 840.924C213.006 844.471 215.586 849.532 217.936 854.579L218.573 855.954C220.243 859.572 221.971 863.298 224.371 866.466C229.978 873.828 239.117 878.04 247.93 882.108C249.274 882.72 250.598 883.332 251.904 883.962C256.032 885.906 260.678 888.336 263.309 892.386C264.864 894.762 265.574 897.462 265.978 900H264.038C263.654 897.732 263.002 895.356 261.677 893.322C259.296 889.686 254.938 887.4 251.04 885.564C249.734 884.952 248.41 884.34 247.085 883.728L245.332 882.917C236.85 878.983 228.312 874.751 222.816 867.51C220.282 864.18 218.515 860.364 216.806 856.656C214.253 851.13 211.853 845.91 207.168 842.328C201.677 838.134 193.152 836.802 184.378 838.782C177.619 840.294 171.283 843.408 165.158 846.414C164.064 846.954 162.989 847.476 161.914 847.998C111.072 872.478 53.3184 879.372 0 883.656V881.856C53.1072 877.572 110.554 870.696 161.03 846.396C162.106 845.874 163.181 845.352 164.256 844.812C170.496 841.77 176.947 838.602 183.936 837.036C193.421 834.894 202.33 836.316 208.378 840.924ZM182.458 893.178C185.453 894.996 188.237 897.174 190.944 899.262L191.885 900H188.87C186.49 898.128 184.013 896.274 181.421 894.69C168.307 886.77 150.47 885.366 128.371 890.532C121.824 892.062 115.258 894.024 108.902 895.914C104.198 897.3 99.3984 898.74 94.56 900H86.9952C94.2336 898.398 101.357 896.274 108.326 894.204C114.701 892.296 121.306 890.334 127.91 888.786C150.528 883.494 168.883 884.97 182.458 893.178ZM133.69 617.058C172.109 601.92 252.058 570.438 281.549 585.63C287.674 588.78 291.398 593.802 292.608 600.552C297.595 628.184 267.123 661.354 250.189 677.335L249.03 678.422C246.759 680.539 244.773 682.311 243.206 683.676C216.902 706.59 185.376 723.798 152.659 740.844C113.107 761.472 68.2752 784.836 19.4496 786.384C18.0288 786.438 16.608 786.456 15.2256 786.456C9.7344 786.456 4.6656 786.096 0 785.358V783.54C5.7984 784.476 12.2496 784.818 19.392 784.584C67.7568 783.054 112.378 759.798 151.738 739.278C184.339 722.286 215.75 705.15 241.901 682.362C254.784 671.13 296.352 632.106 290.707 600.858C289.594 594.684 286.195 590.094 280.627 587.214C251.962 572.436 172.57 603.702 134.438 618.714C126.336 621.9 119.962 624.42 116.198 625.662C77.6064 638.352 34.2336 652.608 0 678.132V675.828C34.2912 650.682 77.2608 636.534 115.565 623.952C119.27 622.746 125.626 620.226 133.69 617.058ZM89.3184 664.308C99.8208 660.744 116.064 660.114 126.95 667.17C133.613 671.49 137.203 678.096 137.299 686.268C137.434 696.258 131.194 706.158 118.234 716.508C100.339 730.818 79.008 741.852 54.7968 749.34C41.7216 753.39 30.4512 755.37 20.3136 755.37C15.6864 755.37 11.2704 754.956 7.0464 754.128C4.9152 753.732 2.208 753.048 0 751.626V749.304C2.016 751.14 5.1072 751.914 7.4304 752.382C20.6208 754.92 35.4816 753.408 54.2016 747.63C78.1632 740.214 99.2832 729.288 116.986 715.14C129.485 705.15 135.494 695.718 135.379 686.286C135.283 678.618 132.077 672.678 125.856 668.646C117.005 662.904 102.259 661.824 89.9904 666L84.96 667.71C63.1296 675.108 40.5504 682.74 22.6944 697.05C11.5392 705.996 3.6864 716.85 0 728.1V722.772C4.2624 712.926 11.5968 703.566 21.4464 695.682C30.5088 688.428 40.7232 682.866 51.4176 678.204C62.1312 673.524 73.3056 669.744 84.3072 666.018L89.3184 664.308ZM224.947 618.12C235.853 617.544 243.974 620.532 247.238 626.274C250.406 631.818 248.698 639.198 242.419 647.046C230.419 662.076 210.413 671.364 190.598 671.364C189.312 671.364 188.006 671.328 186.72 671.238C184.474 671.094 182.112 670.842 179.962 669.852C174.182 667.188 172.493 660.492 172.781 655.578C173.357 646.002 179.923 636.336 190.31 629.73C195.59 626.382 201.466 623.628 207.418 621.63C213.35 619.632 219.379 618.408 224.947 618.12ZM227.52 619.848C226.714 619.848 225.888 619.884 225.043 619.92C214.253 620.478 201.677 624.69 191.405 631.224C186.451 634.356 182.419 638.226 179.539 642.42C176.678 646.632 174.989 651.168 174.701 655.686C174.432 660.042 175.872 665.964 180.806 668.232C182.65 669.078 184.8 669.312 186.854 669.438C207.264 670.716 228.48 661.5 240.883 645.966C246.682 638.712 248.352 632.016 245.549 627.12C242.88 622.44 236.39 619.848 227.52 619.848Z" fill="#575445" fill-opacity="0.09"/>
</svg>
